<?xml version="1.0" standalone="yes"?>

<svg version="1.1" viewBox="0.0 0.0 446.9448818897638 439.18372703412075" fill="none" stroke="none" stroke-linecap="square" stroke-miterlimit="10" xmlns="http://www.w3.org/2000/svg" xmlns:xlink="http://www.w3.org/1999/xlink"><clipPath id="p.0"><path d="m0 0l446.9449 0l0 439.18372l-446.9449 0l0 -439.18372z" clip-rule="nonzero"></path></clipPath><g clip-path="url(#p.0)"><path fill="#000000" fill-opacity="0.0" d="m0 0l446.9449 0l0 439.18372l-446.9449 0z" fill-rule="nonzero"></path><path fill="#ffffff" d="m12.753281 222.4147l0 0c0 -115.04918 93.265785 -208.31497 208.31496 -208.31497l0 0c55.248566 0 108.23428 21.947405 147.30093 61.014038c39.06662 39.066635 61.014038 92.05236 61.014038 147.30093l0 0c0 115.049164 -93.26578 208.31494 -208.31497 208.31494l0 0c-115.04917 0 -208.31496 -93.26578 -208.31496 -208.31494z" fill-rule="nonzero"></path><path stroke="#1c4587" stroke-width="24.0" stroke-linejoin="round" stroke-linecap="butt" d="m12.753281 222.4147l0 0c0 -115.04918 93.265785 -208.31497 208.31496 -208.31497l0 0c55.248566 0 108.23428 21.947405 147.30093 61.014038c39.06662 39.066635 61.014038 92.05236 61.014038 147.30093l0 0c0 115.049164 -93.26578 208.31494 -208.31497 208.31494l0 0c-115.04917 0 -208.31496 -93.26578 -208.31496 -208.31494z" fill-rule="nonzero"></path><path fill="#1c4587" d="m77.39895 222.4147l0 0c0 -79.34636 64.32293 -143.6693 143.66928 -143.6693l0 0c38.103455 0 74.6463 15.136543 101.58954 42.079758c26.943207 26.943222 42.079742 63.48607 42.079742 101.58954l0 0c0 79.346344 -64.32291 143.66928 -143.66928 143.66928l0 0c-79.34636 0 -143.66928 -64.32294 -143.66928 -143.66928z" fill-rule="nonzero"></path><path stroke="#1c4587" stroke-width="1.0" stroke-linejoin="round" stroke-linecap="butt" d="m77.39895 222.4147l0 0c0 -79.34636 64.32293 -143.6693 143.66928 -143.6693l0 0c38.103455 0 74.6463 15.136543 101.58954 42.079758c26.943207 26.943222 42.079742 63.48607 42.079742 101.58954l0 0c0 79.346344 -64.32291 143.66928 -143.66928 143.66928l0 0c-79.34636 0 -143.66928 -64.32294 -143.66928 -143.66928z" fill-rule="nonzero"></path><path fill="#000000" fill-opacity="0.0" d="m126.42257 126.91601l387.874 0l0 129.29132l-387.874 0z" fill-rule="nonzero"></path><path fill="#000000" fill-opacity="0.0" d="m585.4402 297.12585c-10.704285 -9.295715 -60.986023 -26.196869 -64.22571 -55.774292c-3.239746 -29.577423 29.294373 -117.88757 44.787354 -121.690285c15.493042 -3.8027115 28.73407 98.310585 48.170654 98.874016c19.436523 0.5634308 49.153076 -100.28215 68.44879 -95.49344c19.295715 4.788719 52.114197 94.22572 47.32544 124.22572c-4.7886963 30.0 -63.38141 46.478577 -76.05774 55.774292" fill-rule="nonzero"></path><path stroke="#ffffff" stroke-width="12.0" stroke-linejoin="round" stroke-linecap="butt" d="m585.4402 297.12585c-10.704285 -9.295715 -60.986023 -26.196869 -64.22571 -55.774292c-3.239746 -29.577423 29.294373 -117.88757 44.787354 -121.690285c15.493042 -3.8027115 28.73407 98.310585 48.170654 98.874016c19.436523 0.5634308 49.153076 -100.28215 68.44879 -95.49344c19.295715 4.788719 52.114197 94.22572 47.32544 124.22572c-4.7886963 30.0 -63.38141 46.478577 -76.05774 55.774292" fill-rule="nonzero"></path><path fill="#000000" fill-opacity="0.0" d="m221.06824 78.74541l0 287.33856" fill-rule="nonzero"></path><path stroke="#ffffff" stroke-width="24.0" stroke-linejoin="round" stroke-linecap="butt" d="m221.06824 78.74541l0 287.33856" fill-rule="nonzero"></path><path fill="#000000" fill-opacity="0.0" d="m77.39895 222.4147l288.40945 0.6614075" fill-rule="nonzero"></path><path stroke="#ffffff" stroke-width="24.0" stroke-linejoin="round" stroke-linecap="butt" d="m77.39895 222.4147l288.40945 0.6614075" fill-rule="nonzero"></path></g></svg>

